<?xml version="1.0" encoding="utf-8"?>

<!DOCTYPE svg PUBLIC "-//W3C//DTD SVG 1.1//EN" "http://www.w3.org/Graphics/SVG/1.1/DTD/svg11.dtd">
<svg version="1.1" id="Layer_1" xmlns="http://www.w3.org/2000/svg" xmlns:xlink="http://www.w3.org/1999/xlink" x="0px" y="0px"
	 viewBox="0 0 2560 1600" enable-background="new 0 0 2560 1600" xml:space="preserve">
<pattern  width="173" height="300" patternUnits="userSpaceOnUse" id="New_Pattern_4" viewBox="86.5 -400 173 300" overflow="visible">
	<g>
		<polygon fill="none" points="86.5,-400 259.5,-400 259.5,-100 86.5,-100 		"/>
		<g id="Layer_x0020_1_25_">
			<g id="Iso_Cube_2_25_">
				<g>
					<polygon fill="#B3B3B3" points="259,-200 173,-150 259,-100 346,-150 					"/>
					<polygon fill="#CCCCCC" points="259,-100 173,-150 173,-50 259,0 					"/>
					<polygon fill="#B9B9B9" points="346,-150 259,-100 259,0 346,-50 					"/>
				</g>
			</g>
			<g id="_788892848_25_">
				<g>
					<polygon fill="#F2F2F2" points="179,-53 179,-139 253,-96 253,-11 					"/>
					<polygon fill="#9E9E9E" points="185,-57 185,-128 247,-92 247,-21 					"/>
					<polygon fill="#2A2A2A" points="192,-61 192,-117 241,-89 241,-32 					"/>
					<polygon fill="#808080" points="198,-64 198,-106 234,-85 234,-43 					"/>
				</g>
				<g>
					<polygon fill="#747474" points="259,-107 185,-150 259,-192 333,-150 					"/>
					<polygon fill="#121212" points="259,-114 198,-150 259,-185 321,-150 					"/>
					<polygon fill="#333333" points="259,-121 211,-150 259,-178 308,-150 					"/>
					<polygon fill="#666666" points="259,-129 223,-150 259,-171 296,-150 					"/>
					<polygon fill="#4F4F4F" points="259,-136 236,-150 259,-163 283,-150 					"/>
					<polygon fill="#1A1A1A" points="259,-143 248,-150 259,-156 271,-150 					"/>
				</g>
			</g>
		</g>
		<g id="Layer_x0020_1_24_">
			<g id="Iso_Cube_2_24_">
				<g>
					<polygon fill="#B3B3B3" points="86,-200 0,-150 86,-100 173,-150 					"/>
					<polygon fill="#B9B9B9" points="173,-150 86,-100 86,0 173,-50 					"/>
				</g>
			</g>
			<g id="_788892848_24_">
				<g>
					<polygon fill="#545454" points="93,-11 93,-96 167,-139 167,-53 					"/>
					<polygon points="99,-21 99,-92 160,-128 160,-57 					"/>
					<polygon fill="#4D4D4D" points="105,-32 105,-89 154,-117 154,-61 					"/>
					<polygon fill="#999999" points="112,-43 112,-85 148,-106 148,-64 					"/>
				</g>
				<g>
					<polygon fill="#747474" points="86,-107 12,-150 86,-192 160,-150 					"/>
					<polygon fill="#121212" points="86,-114 25,-150 86,-185 148,-150 					"/>
					<polygon fill="#333333" points="86,-121 38,-150 86,-178 135,-150 					"/>
					<polygon fill="#666666" points="86,-129 50,-150 86,-171 123,-150 					"/>
					<polygon fill="#4F4F4F" points="86,-136 63,-150 86,-163 110,-150 					"/>
					<polygon fill="#1A1A1A" points="86,-143 75,-150 86,-156 98,-150 					"/>
				</g>
			</g>
		</g>
		<g id="Layer_x0020_1_23_">
			<g id="Iso_Cube_2_23_">
				<g>
					<polygon fill="#B3B3B3" points="172.5,-350 86.5,-300 172.5,-250 259.5,-300 					"/>
					<polygon fill="#CCCCCC" points="172.5,-250 86.5,-300 86.5,-200 172.5,-150 					"/>
					<polygon fill="#B9B9B9" points="259.5,-300 172.5,-250 172.5,-150 259.5,-200 					"/>
				</g>
			</g>
			<g id="_788892848_23_">
				<g>
					<polygon fill="#545454" points="179.5,-161 179.5,-246 253.5,-289 253.5,-203 					"/>
					<polygon points="185.5,-171 185.5,-242 246.5,-278 246.5,-207 					"/>
					<polygon fill="#4D4D4D" points="191.5,-182 191.5,-239 240.5,-267 240.5,-211 					"/>
					<polygon fill="#999999" points="198.5,-193 198.5,-235 234.5,-256 234.5,-214 					"/>
					<polygon fill="#B5B5B5" points="204.5,-204 204.5,-231 228.5,-245 228.5,-218 					"/>
					<polygon fill="#0F0F0F" points="210.5,-215 210.5,-228 221.5,-234 221.5,-221 					"/>
				</g>
				<g>
					<polygon fill="#F2F2F2" points="92.5,-203 92.5,-289 166.5,-246 166.5,-161 					"/>
					<polygon fill="#9E9E9E" points="98.5,-207 98.5,-278 160.5,-242 160.5,-171 					"/>
					<polygon fill="#2A2A2A" points="105.5,-211 105.5,-267 154.5,-239 154.5,-182 					"/>
					<polygon fill="#808080" points="111.5,-214 111.5,-256 147.5,-235 147.5,-193 					"/>
					<polygon fill="#282828" points="117.5,-218 117.5,-245 141.5,-231 141.5,-204 					"/>
					<polygon fill="#E6E6E6" points="124.5,-221 124.5,-234 135.5,-228 135.5,-215 					"/>
				</g>
				<g>
					<polygon fill="#747474" points="172.5,-257 98.5,-300 172.5,-342 246.5,-300 					"/>
					<polygon fill="#121212" points="172.5,-264 111.5,-300 172.5,-335 234.5,-300 					"/>
					<polygon fill="#333333" points="172.5,-271 124.5,-300 172.5,-328 221.5,-300 					"/>
					<polygon fill="#666666" points="172.5,-279 136.5,-300 172.5,-321 209.5,-300 					"/>
					<polygon fill="#4F4F4F" points="172.5,-286 149.5,-300 172.5,-313 196.5,-300 					"/>
					<polygon fill="#1A1A1A" points="172.5,-293 161.5,-300 172.5,-306 184.5,-300 					"/>
				</g>
			</g>
		</g>
		<g id="Layer_x0020_1_22_">
			<g id="Iso_Cube_2_22_">
				<g>
					<polygon fill="#CCCCCC" points="259,-400 173,-450 173,-350 259,-300 					"/>
					<polygon fill="#B9B9B9" points="346,-450 259,-400 259,-300 346,-350 					"/>
				</g>
			</g>
			<g id="_788892848_22_">
				<g>
					<polygon fill="#F2F2F2" points="179,-353 179,-439 253,-396 253,-311 					"/>
					<polygon fill="#9E9E9E" points="185,-357 185,-428 247,-392 247,-321 					"/>
					<polygon fill="#2A2A2A" points="192,-361 192,-417 241,-389 241,-332 					"/>
					<polygon fill="#808080" points="198,-364 198,-406 234,-385 234,-343 					"/>
					<polygon fill="#282828" points="204,-368 204,-395 228,-381 228,-354 					"/>
					<polygon fill="#E6E6E6" points="211,-371 211,-384 222,-378 222,-365 					"/>
				</g>
			</g>
		</g>
		<g id="Layer_x0020_1_21_">
			<g id="Iso_Cube_2_21_">
				<g>
					<polygon fill="#B9B9B9" points="173,-450 86,-400 86,-300 173,-350 					"/>
				</g>
			</g>
			<g id="_788892848_21_">
				<g>
					<polygon fill="#545454" points="93,-311 93,-396 167,-439 167,-353 					"/>
					<polygon points="99,-321 99,-392 160,-428 160,-357 					"/>
					<polygon fill="#4D4D4D" points="105,-332 105,-389 154,-417 154,-361 					"/>
					<polygon fill="#999999" points="112,-343 112,-385 148,-406 148,-364 					"/>
					<polygon fill="#B5B5B5" points="118,-354 118,-381 142,-395 142,-368 					"/>
					<polygon fill="#0F0F0F" points="124,-365 124,-378 135,-384 135,-371 					"/>
				</g>
			</g>
		</g>
	</g>
</pattern>
<pattern  id="SVGID_1_" xlink:href="#New_Pattern_4" patternTransform="matrix(1 0 0 1 -1 -1)">
</pattern>
<rect fill="url(#SVGID_1_)" width="2560" height="1600"/>
</svg>
